<?xml version="1.0" standalone="no"?>
<!DOCTYPE svg PUBLIC "-//W3C//DTD SVG 20010904//EN"
 "http://www.w3.org/TR/2001/REC-SVG-20010904/DTD/svg10.dtd">
<svg version="1.0" xmlns="http://www.w3.org/2000/svg"
 width="30.000000pt" height="30.000000pt" viewBox="0 0 30.000000 30.000000"
 preserveAspectRatio="xMidYMid meet">

<g transform="translate(0.000000,30.000000) scale(0.100000,-0.100000)"
fill="#000000" stroke="none">
<path d="M172 245 c-12 -9 -22 -25 -22 -37 0 -17 -4 -19 -27 -14 -16 4 -40 16
-55 26 -15 11 -30 20 -33 20 -10 0 3 -94 14 -98 6 -2 9 -8 6 -12 -3 -5 4 -18
16 -29 l21 -20 -33 -9 -34 -9 37 -11 c88 -25 188 42 188 126 0 12 4 23 9 27
18 10 8 40 -13 41 -12 0 -28 4 -36 8 -8 3 -25 -1 -38 -9z"/>
</g>
</svg>
