<?xml version="1.0" standalone="no"?>
<!DOCTYPE svg PUBLIC "-//W3C//DTD SVG 20010904//EN"
 "http://www.w3.org/TR/2001/REC-SVG-20010904/DTD/svg10.dtd">
<svg version="1.0" xmlns="http://www.w3.org/2000/svg"
 width="30.000000pt" height="30.000000pt" viewBox="0 0 30.000000 30.000000"
 preserveAspectRatio="xMidYMid meet">

<g transform="translate(0.000000,30.000000) scale(0.100000,-0.100000)"
fill="#000000" stroke="none">
<path d="M136 254 c-9 -8 -16 -26 -16 -40 0 -17 -5 -24 -20 -24 -13 0 -20 -7
-20 -20 0 -13 7 -20 20 -20 18 0 20 -7 20 -60 0 -53 2 -60 20 -60 18 0 20 7
20 60 0 53 2 60 20 60 13 0 20 7 20 20 0 13 -7 20 -20 20 -12 0 -20 7 -20 16
0 9 9 18 20 21 11 3 20 14 20 24 0 24 -42 26 -64 3z"/>
</g>
</svg>
