<?xml version="1.0" standalone="no"?>
<!DOCTYPE svg PUBLIC "-//W3C//DTD SVG 20010904//EN"
 "http://www.w3.org/TR/2001/REC-SVG-20010904/DTD/svg10.dtd">
<svg version="1.0" xmlns="http://www.w3.org/2000/svg"
 width="48.000000pt" height="48.000000pt" viewBox="0 0 48.000000 48.000000"
 preserveAspectRatio="xMidYMid meet">

<g transform="translate(0.000000,48.000000) scale(0.100000,-0.100000)"
fill="#000000" stroke="none">
<path d="M108 414 c-46 -24 -58 -61 -58 -174 0 -165 25 -190 190 -190 165 0
190 25 190 190 0 166 -25 190 -192 190 -71 -1 -111 -5 -130 -16z m263 -43 c28
-29 29 -32 29 -131 0 -99 -1 -102 -29 -131 -29 -28 -32 -29 -131 -29 -99 0
-102 1 -131 29 -28 29 -29 32 -29 131 0 99 1 102 29 131 29 28 32 29 131 29
99 0 102 -1 131 -29z"/>
<path d="M324 349 c-10 -17 13 -36 27 -22 12 12 4 33 -11 33 -5 0 -12 -5 -16
-11z"/>
<path d="M191 326 c-87 -48 -50 -186 49 -186 51 0 100 49 100 99 0 75 -83 124
-149 87z m96 -38 c29 -27 29 -65 1 -95 -27 -29 -65 -29 -95 -1 -29 27 -29 65
-1 95 27 29 65 29 95 1z"/>
</g>
</svg>
